<?xml version="1.0" standalone="no"?>
<svg xmlns="http://www.w3.org/2000/svg" xmlns:xlink="http://www.w3.org/1999/xlink" style="isolation:isolate" viewBox="0 0 350 80" width="350" height="80">
<defs><clipPath id="_clipPath_main"><rect width="350" height="80"/></clipPath></defs>
<g clip-path="url(#_clipPath_main)">
  <!-- Logo (scaled and positioned) -->
  <g transform="translate(10, 15) scale(1.5)">
    <path d=" M 29.894 9.22 L 15.447 0.879 L 1 9.22 L 1 25.902 L 5.816 28.682 L 5.816 12 L 15.447 6.44 L 25.078 12 L 25.078 28.682 L 29.894 25.902 L 29.894 9.22 Z " fill="rgb(255,255,255)"/>
    <path d=" M 20.262 14.781 L 15.447 12 L 10.631 14.781 L 10.631 20.341 L 15.447 23.121 L 20.262 20.341 L 20.262 14.781 Z " fill="rgb(255,255,255)"/>
    <path d=" M 20.262 25.902 L 15.447 28.682 L 10.631 25.902 L 10.631 31.462 L 15.447 34.242 L 20.262 31.462 L 20.262 25.902 Z " fill="rgb(255,255,255)"/>
  </g>
  
  <!-- Testo "OREMUS" in bianco -->
  <text x="85" y="55" font-family="Georgia, serif" font-size="48" font-weight="bold" fill="rgb(255,255,255)" letter-spacing="2">OREMUS</text>
  
  <!-- Linea decorativa sotto il testo -->
  <line x1="85" y1="65" x2="340" y2="65" stroke="rgb(255,255,255)" stroke-width="2"/>
</g>
</svg>
